<svg xmlns="http://www.w3.org/2000/svg" width="15.711" height="9.688" viewBox="0 0 15.711 9.688">
  <g id="_001-behance" data-name="001-behance" transform="translate(0)">
    <path id="Path_17" data-name="Path 17" d="M6.649,91.958a2.629,2.629,0,0,0,.418-1.47,2.667,2.667,0,0,0-2.679-2.6H.343A.343.343,0,0,0,0,88.231v8.9a.343.343,0,0,0,.343.343H4.862a3.033,3.033,0,0,0,1.787-5.513Zm-4.875-2.3H4.423a.87.87,0,1,1,0,1.74H1.775ZM4.9,95.7H1.775V93.177H4.9a1.259,1.259,0,0,1,0,2.519Z" transform="translate(0 -87.888)" fill="#fff"/>
    <path id="Path_18" data-name="Path 18" d="M253.316,155.065a3.642,3.642,0,1,0-3.64,3.757,3.607,3.607,0,0,0,3.027-1.67,3.8,3.8,0,0,0,.229-.407.154.154,0,0,0-.139-.221l-1.789,0a.151.151,0,0,0-.105.044,1.693,1.693,0,0,1-1.223.484,1.9,1.9,0,0,1-1.82-1.552h5.1a.356.356,0,0,0,.356-.356Zm-3.64-1.982a1.84,1.84,0,0,1,1.559.9h-3.118A1.84,1.84,0,0,1,249.677,153.083Z" transform="translate(-237.605 -149.134)" fill="#fff"/>
    <path id="Path_19" data-name="Path 19" d="M297.716,100.248h-3.228a.273.273,0,0,1-.273-.273v-.81a.273.273,0,0,1,.273-.273h3.228a.273.273,0,0,1,.273.273v.81A.273.273,0,0,1,297.716,100.248Z" transform="translate(-284.132 -98.516)" fill="#fff"/>
  </g>
</svg>
