<svg xmlns="http://www.w3.org/2000/svg" width="13.754" height="13.754" viewBox="0 0 13.754 13.754">
  <g id="_003-dribbble" data-name="003-dribbble" transform="translate(0)">
    <path id="Path_20" data-name="Path 20" d="M6.877,0a6.877,6.877,0,1,0,6.877,6.877A6.877,6.877,0,0,0,6.877,0ZM11.39,3.329a5.717,5.717,0,0,1,1.228,3.387,12.2,12.2,0,0,0-4.024-.1q-.219-.5-.45-.974A8.3,8.3,0,0,0,11.39,3.329ZM10.6,2.508a7.259,7.259,0,0,1-2.976,2.12A29.456,29.456,0,0,0,5.523,1.3,5.722,5.722,0,0,1,10.6,2.508ZM4.408,1.692a28.177,28.177,0,0,1,2.125,3.3,20.314,20.314,0,0,1-5.245.568A5.766,5.766,0,0,1,4.408,1.692ZM1.133,6.878l0-.186h.031a21.135,21.135,0,0,0,5.9-.671q.2.415.4.852a8.956,8.956,0,0,0-4.916,3.781A5.717,5.717,0,0,1,1.133,6.878Zm2.258,4.561a7.891,7.891,0,0,1,4.52-3.512,19.623,19.623,0,0,1,1.155,4.261,5.724,5.724,0,0,1-5.674-.749Zm6.731.176A20.936,20.936,0,0,0,9.038,7.7a11.386,11.386,0,0,1,3.5.15A5.756,5.756,0,0,1,10.122,11.615Z" transform="translate(0 -0.001)" fill="#fff"/>
  </g>
</svg>
