<svg xmlns="http://www.w3.org/2000/svg" xmlns:xlink="http://www.w3.org/1999/xlink" width="748" height="150" viewBox="0 0 748 150">
  <defs>
    <clipPath id="clip-path">
      <path id="Path_52" data-name="Path 52" d="M1118.98,453.15a74.634,74.634,0,0,1-9.01,35.67c-1.08,1.98-2.25,3.91-3.49,5.78a75.007,75.007,0,0,1-62.5,33.55h-598a74.9,74.9,0,0,1-62.5-33.55c-1.24-1.87-2.41-3.8-3.49-5.78a75.017,75.017,0,0,1,65.99-110.67h598A75,75,0,0,1,1118.98,453.15Z" fill="#0d0526"/>
    </clipPath>
    <linearGradient id="linear-gradient" y1="0.5" x2="1" y2="0.5" gradientUnits="objectBoundingBox">
      <stop offset="0" stop-color="#1a2664"/>
      <stop offset="1" stop-color="#1a2664" stop-opacity="0"/>
    </linearGradient>
    <linearGradient id="linear-gradient-3" y1="1" x2="1" y2="1" xlink:href="#linear-gradient"/>
    <linearGradient id="linear-gradient-4" x1="-91.677" y1="84.132" x2="-91.723" y2="84.056" gradientUnits="objectBoundingBox">
      <stop offset="0.129"/>
      <stop offset="1" stop-color="#fff"/>
    </linearGradient>
    <linearGradient id="linear-gradient-5" x1="-90.811" y1="47.786" x2="-90.638" y2="47.712" xlink:href="#linear-gradient-4"/>
  </defs>
  <g id="Group_15" data-name="Group 15" transform="translate(-370.98 -378.15)">
    <g id="Group_6" data-name="Group 6">
      <path id="Path_48" data-name="Path 48" d="M1118.98,453.15a74.634,74.634,0,0,1-9.01,35.67c-1.08,1.98-2.25,3.91-3.49,5.78a75.007,75.007,0,0,1-62.5,33.55h-598a74.9,74.9,0,0,1-62.5-33.55c-1.24-1.87-2.41-3.8-3.49-5.78a75.017,75.017,0,0,1,65.99-110.67h598A75,75,0,0,1,1118.98,453.15Z" fill="#0d0526"/>
      <g id="Group_5" data-name="Group 5" clip-path="url(#clip-path)">
        <path id="Path_49" data-name="Path 49" d="M1202.778,474.248s-91.7-33.461-155.96-29.362-195.879,52.171-195.879,52.171-145.212-61.835-210.149-61.14-138.112,53.06-138.112,53.06v25.161h700.1Z" fill="#231d54" opacity="0.72"/>
        <path id="Path_50" data-name="Path 50" d="M388.024,473.928s95.635-37.758,159.9-33.659,191.944,56.468,191.944,56.468,148.04-39.1,212.977-38.4,135.285,30.325,135.285,30.325v25.161h-700.1Z" fill="#231d54" opacity="0.63"/>
        <path id="Path_51" data-name="Path 51" d="M334.505,474.248s71.025-31.216,135.285-27.116,216.554,49.925,216.554,49.925,148.04-39.1,212.976-38.4S1034.6,488.977,1034.6,488.977v25.161h-700.1Z" fill="#231d54"/>
      </g>
    </g>
    <path id="Path_53" data-name="Path 53" d="M1109.97,488.82c-1.08,1.98-2.25,3.91-3.49,5.78a75.007,75.007,0,0,1-62.5,33.55h-598a74.9,74.9,0,0,1-62.5-33.55c-1.24-1.87-2.41-3.8-3.49-5.78Z" fill="#130a30"/>
    <path id="Path_54" data-name="Path 54" d="M1106.48,494.6a75.007,75.007,0,0,1-62.5,33.55h-598a74.9,74.9,0,0,1-62.5-33.55Z" fill="#191342"/>
    <path id="Path_48-2" data-name="Path 48" d="M880.41,494.6s5.861-31.843,16.769-34.4,5.2,21.973,11.31,21.87,8.282-9.319,16.563-7.879,3.549,13.069,16.03,11.854,20.756,8.552,20.756,8.552Z" fill="#06952c"/>
    <path id="Path_48-3" data-name="Path 48" d="M471.918,494.6s5.441-29.554,15.564-31.923,4.824,20.393,10.5,20.3,7.686-8.649,15.372-7.313,3.294,12.129,14.877,11,19.264,7.937,19.264,7.937Z" fill="#06952c"/>
    <path id="Path_48-4" data-name="Path 48" d="M513.756,494.6s-3.743-20.336-10.709-21.966-3.32,14.033-7.223,13.967-5.288-5.951-10.577-5.032-2.266,8.346-10.237,7.571-13.255,5.461-13.255,5.461Z" fill="#057c21" opacity="0.9"/>
    <g id="Group_7" data-name="Group 7">
      <path id="Path_55" data-name="Path 55" d="M819.262,471.666v22.86h-9.03v-22.86l1.88-3.48h5.27Z" fill="#f4e6dc"/>
      <rect id="Rectangle_55" data-name="Rectangle 55" width="9.033" height="3.764" transform="translate(810.23 474.77)" fill="#db8c83"/>
      <rect id="Rectangle_56" data-name="Rectangle 56" width="9.033" height="3.765" transform="translate(810.23 482.108)" fill="#db8c83"/>
      <path id="Path_56" data-name="Path 56" d="M814.462,468.186v26.34h-4.23v-22.86l1.88-3.48Z" fill="#b88a6a" opacity="0.4"/>
      <rect id="Rectangle_57" data-name="Rectangle 57" width="12.79" height="3.57" transform="translate(808.352 490.956)" fill="#685447"/>
    </g>
    <g id="Group_11" data-name="Group 11" opacity="0.2">
      <g id="Group_8" data-name="Group 8">
        <rect id="Rectangle_58" data-name="Rectangle 58" width="6" height="3" transform="translate(399.667 510.63)" fill="#6d8dcc"/>
      </g>
      <g id="Group_9" data-name="Group 9">
        <path id="Path_57" data-name="Path 57" d="M1058.655,513.63h-11.818v-3h11.818Zm-38.411,0h-11.818v-3h11.818Zm-38.411,0H970.015v-3h11.818Zm-38.411,0H931.6v-3h11.818Zm-38.411,0H893.192v-3h11.819Zm-38.411,0H854.781v-3H866.6Zm-38.412,0H816.37v-3h11.818Zm-38.411,0H777.959v-3h11.818Zm-38.411,0H739.548v-3h11.818Zm-38.411,0H701.137v-3h11.818Zm-38.411,0H662.726v-3h11.818Zm-38.411,0H624.314v-3h11.819Zm-38.411,0H585.9v-3h11.819Zm-38.411,0H547.492v-3h11.819Zm-38.412,0H509.081v-3H520.9Zm-38.411,0H470.67v-3h11.818Zm-38.411,0H432.259v-3h11.818Z" fill="#6d8dcc"/>
      </g>
      <g id="Group_10" data-name="Group 10">
        <rect id="Rectangle_59" data-name="Rectangle 59" width="6" height="3" transform="translate(1085.248 510.63)" fill="#6d8dcc"/>
      </g>
    </g>
    <g id="Group_17" data-name="Group 17">
      <path id="Path_81" data-name="Path 81" d="M907.2,422.048h0a.773.773,0,0,0-.772-.772H868.648a.773.773,0,0,0-.772.771h0a.773.773,0,0,0,.772.772h37.781A.772.772,0,0,0,907.2,422.048Z" opacity="0.6" fill="url(#linear-gradient)"/>
      <path id="Path_81-2" data-name="Path 81" d="M911.6,442.164h0a.772.772,0,0,0-.772-.772H873.051a.772.772,0,0,0-.772.771h0a.773.773,0,0,0,.772.772h37.781A.772.772,0,0,0,911.6,442.164Z" opacity="0.58" fill="url(#linear-gradient)"/>
      <path id="Path_82" data-name="Path 82" d="M921.124,431.921h0a.772.772,0,0,0-.772-.771H882.571a.772.772,0,0,0-.772.771h0a.774.774,0,0,0,.772.772h37.781A.774.774,0,0,0,921.124,431.921Z" opacity="0.6" fill="url(#linear-gradient-3)"/>
      <g id="Group_10-2" data-name="Group 10">
        <path id="Path_49-2" data-name="Path 49" d="M832.268,420.308l2.419,4.6,5.831-3.037-2.848-4.058Z" fill="#ee9f97"/>
        <g id="Group_6-2" data-name="Group 6">
          <path id="Path_50-2" data-name="Path 50" d="M801.426,469.4a21.363,21.363,0,1,0,21.364,21.363A21.363,21.363,0,0,0,801.426,469.4Zm0,38.114a16.75,16.75,0,1,1,16.75-16.751,16.75,16.75,0,0,1-16.75,16.751Z" fill="#06064c"/>
          <path id="Path_51-2" data-name="Path 51" d="M801.426,472.608a18.159,18.159,0,1,0,18.159,18.159,18.159,18.159,0,0,0-18.159-18.159Zm15.038,17.111H803.955l8.845-8.845a1.254,1.254,0,0,1,1.774-.01,1.241,1.241,0,0,1,.118.134,16.41,16.41,0,0,1,3.023,7.29,1.258,1.258,0,0,1-1.073,1.419,1.347,1.347,0,0,1-.179.012Zm-13.99-1.482v-12.5a1.257,1.257,0,0,1,1.252-1.262,1.359,1.359,0,0,1,.179.012,16.388,16.388,0,0,1,7.289,3.01,1.254,1.254,0,0,1,.243,1.757,1.183,1.183,0,0,1-.119.136Zm-2.1-12.5v12.5l-8.843-8.844a1.254,1.254,0,0,1,.125-1.893,16.379,16.379,0,0,1,7.289-3.01,1.256,1.256,0,0,1,1.419,1.07,1.218,1.218,0,0,1,.013.181Zm-10.323,5.137,8.844,8.845H786.388a1.257,1.257,0,0,1-1.263-1.253,1.057,1.057,0,0,1,.012-.178A16.37,16.37,0,0,1,788.16,481a1.254,1.254,0,0,1,1.757-.242A1.368,1.368,0,0,1,790.051,480.874Zm-3.663,10.941H798.9l-8.844,8.844a1.255,1.255,0,0,1-1.774.012,1.268,1.268,0,0,1-.118-.135,16.387,16.387,0,0,1-3.023-7.29,1.258,1.258,0,0,1,1.073-1.419A1.336,1.336,0,0,1,786.388,491.815Zm13.989,1.482v12.5a1.257,1.257,0,0,1-1.251,1.263,1.334,1.334,0,0,1-.179-.012,16.379,16.379,0,0,1-7.289-3.01,1.255,1.255,0,0,1-.244-1.758,1.274,1.274,0,0,1,.119-.135Zm2.1,12.5V493.3l8.844,8.844a1.254,1.254,0,0,1,.012,1.773,1.3,1.3,0,0,1-.136.12,16.389,16.389,0,0,1-7.289,3.01,1.259,1.259,0,0,1-1.423-1.068,1.246,1.246,0,0,1-.012-.183Zm10.327-5.134-8.845-8.844h12.508a1.258,1.258,0,0,1,1.263,1.253,1.32,1.32,0,0,1-.012.178,16.41,16.41,0,0,1-3.023,7.29,1.255,1.255,0,0,1-1.757.241,1.231,1.231,0,0,1-.138-.122Z" fill="#362599"/>
          <path id="Path_52-2" data-name="Path 52" d="M801.426,485.089a5.679,5.679,0,1,0,5.679,5.679h0A5.679,5.679,0,0,0,801.426,485.089Z" fill="#dedede"/>
        </g>
        <g id="Group_7-2" data-name="Group 7">
          <path id="Path_53-2" data-name="Path 53" d="M887.224,469.4a21.363,21.363,0,1,0,21.363,21.363h0A21.364,21.364,0,0,0,887.224,469.4Zm0,38.114a16.75,16.75,0,1,1,16.75-16.751,16.75,16.75,0,0,1-16.75,16.751Z" fill="#06064c"/>
          <path id="Path_54-2" data-name="Path 54" d="M887.223,472.608a18.159,18.159,0,1,0,18.159,18.159,18.159,18.159,0,0,0-18.159-18.159Zm15.037,17.111H889.751l8.845-8.845a1.254,1.254,0,0,1,1.774-.01,1.234,1.234,0,0,1,.118.134,16.392,16.392,0,0,1,3.022,7.29,1.258,1.258,0,0,1-1.073,1.419,1.317,1.317,0,0,1-.177.012Zm-13.989-1.482v-12.5a1.257,1.257,0,0,1,1.252-1.262,1.358,1.358,0,0,1,.179.012,16.388,16.388,0,0,1,7.289,3.01,1.257,1.257,0,0,1,.124,1.893Zm-2.1-12.5v12.5l-8.844-8.844a1.255,1.255,0,0,1-.011-1.775,1.268,1.268,0,0,1,.135-.118,16.379,16.379,0,0,1,7.289-3.01,1.257,1.257,0,0,1,1.422,1.066,1.274,1.274,0,0,1,.013.185Zm-10.32,5.137,8.844,8.845H872.186a1.257,1.257,0,0,1-1.263-1.253,1.064,1.064,0,0,1,.012-.178,16.374,16.374,0,0,1,3.022-7.29,1.254,1.254,0,0,1,1.758-.243A1.276,1.276,0,0,1,875.851,480.874Zm-3.663,10.941H884.7l-8.844,8.844a1.255,1.255,0,0,1-1.775.012,1.167,1.167,0,0,1-.118-.135,16.386,16.386,0,0,1-3.022-7.29,1.257,1.257,0,0,1,1.071-1.419,1.334,1.334,0,0,1,.179-.012Zm13.989,1.482v12.5a1.259,1.259,0,0,1-1.253,1.263,1.321,1.321,0,0,1-.178-.012,16.379,16.379,0,0,1-7.289-3.01,1.255,1.255,0,0,1-.243-1.758,1.274,1.274,0,0,1,.119-.135Zm2.1,12.5V493.3l8.844,8.844a1.254,1.254,0,0,1,.01,1.775,1.36,1.36,0,0,1-.134.118,16.388,16.388,0,0,1-7.289,3.01,1.258,1.258,0,0,1-1.425-1.066,1.272,1.272,0,0,1-.012-.185Zm10.327-5.134-8.853-8.848h12.507a1.258,1.258,0,0,1,1.263,1.251,1.351,1.351,0,0,1-.012.18,16.4,16.4,0,0,1-3.022,7.29,1.255,1.255,0,0,1-1.758.239,1.3,1.3,0,0,1-.131-.116Z" fill="#362599"/>
          <path id="Path_55-2" data-name="Path 55" d="M887.224,485.089a5.679,5.679,0,1,0,5.678,5.68v0A5.68,5.68,0,0,0,887.224,485.089Z" fill="#dedede"/>
        </g>
        <rect id="Rectangle_55-2" data-name="Rectangle 55" width="1.29" height="11.966" transform="translate(841.068 481.537) rotate(-45)" fill="#203e87"/>
        <path id="Path_56-2" data-name="Path 56" d="M843.828,479.433l1.744,4.052a.5.5,0,0,1-.309.636.489.489,0,0,1-.17.028h-9.128a.449.449,0,0,1-.29-.793,9.722,9.722,0,0,1,5.24-2.109l-.635-1.814Z" fill="#503d3d"/>
        <path id="Path_57-2" data-name="Path 57" d="M845.032,444.252l.29,2.274a1.5,1.5,0,0,1-1.294,1.681h-.006c-4.094.521-15.352,2.372-17.454,7.168-2.58,5.885,13.946,25.152,13.946,25.152h3.97l-7.917-19.347s12.254-2.016,15.72-2.58,6.154-5.052,3.937-12.9Z" fill="#220481"/>
        <path id="Path_58" data-name="Path 58" d="M836.568,461.181l15.72-2.58-4.4-7.537Z" opacity="0.2" fill="url(#linear-gradient-4)"/>
        <path id="Path_59" data-name="Path 59" d="M838.905,413.214s1.113-5.683-1.612-6.57a2.388,2.388,0,0,0-1.847-2.828c-.069-.014-.138-.026-.208-.034-2.607-.671-10.964,1.008-12.482,4.891-1.2,3.07,2.257,3.923,2.257,3.923a8.5,8.5,0,0,0,3.861,5.536Z" fill="#220481"/>
        <path id="Path_60" data-name="Path 60" d="M845.684,418.628,856.8,412.9a.8.8,0,0,0,.375-1.013l-5.342-13.268-1.672.906a.627.627,0,0,1-.849-.253l-.009-.018-1.138-2.274a.747.747,0,0,1,.283-.974l2.667-1.6a1.741,1.741,0,0,1,2.389.6c.016.028.032.056.047.084l8.265,15.654a6.067,6.067,0,0,1-1.5,7.512c-4.665,3.855-11.953,9.85-11.9,9.631C848.5,427.565,845.684,418.628,845.684,418.628Z" fill="#ffbbb4"/>
        <path id="Path_61" data-name="Path 61" d="M833.746,432.106l-5.07,10.067a11.548,11.548,0,0,1-7.392,5.978l-12.1,3.163a.429.429,0,0,0-.3.527l0,.014.156.517a.649.649,0,0,1-.177.661l-1.152,1.081a.906.906,0,0,1-1.07.125l-.725-.413a1.35,1.35,0,0,1-.616-1.587l.167-.519a7.5,7.5,0,0,1,4.1-4.558l12.332-5.489,6.288-14.108Z" fill="#ffbbb4"/>
        <path id="Path_62" data-name="Path 62" d="M826.214,431.984l3.325,8.475,4.207-8.353-5.563-4.545Z" fill="#ee9f97"/>
        <path id="Path_63" data-name="Path 63" d="M866.477,507.012l.451,4.163a.864.864,0,0,1-.766.95c-.031,0-.061.005-.091.005h-9.708a.487.487,0,0,1-.318-.857,13.384,13.384,0,0,1,5.771-2.208.66.66,0,0,0,.565-.736l-.175-1.317Z" fill="#503d3d"/>
        <path id="Path_64" data-name="Path 64" d="M855.916,456.075H810.341v6.315l40.9,31.091h37.1a2.491,2.491,0,0,0,2.492-2.49v0h0a2.5,2.5,0,0,0-.757-1.79Zm-2.876,3.548-3.152,29.2-35.363-27.7a.841.841,0,0,1,.518-1.5Zm.058,30.312,3.229-29.914,28.116,27.262a1.544,1.544,0,0,1-1.075,2.652Z" fill="#c5c5c5"/>
        <rect id="Rectangle_56-2" data-name="Rectangle 56" width="0.913" height="35.272" transform="translate(852.162 485.353) rotate(-83.564)" fill="#203e87"/>
        <path id="Path_65" data-name="Path 65" d="M887.173,492.227l-35.01,4.45.1.908,35.009-4.45Z" fill="#203e87"/>
        <circle id="Ellipse_35" data-name="Ellipse 35" cx="6.718" cy="6.718" r="6.718" transform="translate(844.666 484.149)" fill="#dedede"/>
        <path id="Path_66" data-name="Path 66" d="M861.248,500.8h0a.645.645,0,0,1-.912,0l-9.428-9.429a.644.644,0,0,1,0-.911h0a.645.645,0,0,1,.912,0l9.428,9.428A.646.646,0,0,1,861.248,500.8Z" fill="#203e87"/>
        <g id="Group_8-2" data-name="Group 8">
          <path id="Path_67" data-name="Path 67" d="M803.475,457.876a2.915,2.915,0,0,1-2.346-1.036,3.421,3.421,0,0,1-.736-2.221,4.49,4.49,0,0,1,4.331-4.6h7.45a1.642,1.642,0,0,1,1.644,1.639,1.7,1.7,0,0,1-.044.383l-.77,3.241-1.882-.447.684-2.88h-7.082a2.572,2.572,0,0,0-2.4,2.668c0,.6.2,1.322,1.147,1.322Z" fill="#203e87"/>
        </g>
        <path id="Path_68" data-name="Path 68" d="M846.349,444.893l15.586,62.559h4.837s-.3-22.739-3.843-29.345a121.65,121.65,0,0,0-2.136-32.031Z" fill="#220481"/>
        <path id="Path_69" data-name="Path 69" d="M860.794,446.079l-4.568-.374h0l-11.193-1.453.29,2.274v.046c2.438.711,11.394,3.323,16.447,4.751C861.5,449.59,861.176,447.837,860.794,446.079Z" fill="#07001c" opacity="0.2"/>
        <path id="Path_70" data-name="Path 70" d="M828.184,427.563l18.461-9.431s9.633,14.4,14.148,27.947H846.451a2.739,2.739,0,0,1-2.646-2.032l-.272-1.016a5.186,5.186,0,0,0-2.115-2.966C838.036,437.8,830.306,432.246,828.184,427.563Z" fill="#871187"/>
        <path id="Path_71" data-name="Path 71" d="M890.836,490.99a2.5,2.5,0,0,0-.757-1.79l-3.787-3.671-2.443,1.178.594.576a1.544,1.544,0,0,1-1.075,2.652h-3.286l-3.77,3.547h12.034A2.492,2.492,0,0,0,890.836,490.99Z" fill="#bcbfc6"/>
        <path id="Path_72" data-name="Path 72" d="M888.472,490.767a1.248,1.248,0,1,1-1.248-1.248h0A1.248,1.248,0,0,1,888.472,490.767Z" fill="none" stroke="#fff" stroke-miterlimit="10" stroke-width="0.5"/>
        <path id="Path_73" data-name="Path 73" d="M824.441,468.892l-9.917-7.767a.84.84,0,0,1,.518-1.5h6.815l-.989-3.548H810.341v6.315l15.592,11.853Z" opacity="0.39" fill="url(#linear-gradient-5)"/>
        <g id="Group_9-2" data-name="Group 9">
          <path id="Path_74" data-name="Path 74" d="M800.362,493.231l-1.518-1.487a.551.551,0,0,1-.009-.778h0a24.133,24.133,0,0,0,6.354-11.792l5.679-26.246a.55.55,0,0,1,.654-.421l2.077.449a.552.552,0,0,1,.421.654l-5.677,26.237a27.411,27.411,0,0,1-7.2,13.376h0a.551.551,0,0,1-.777.014Z" fill="#c5c5c5"/>
        </g>
        <path id="Path_75" data-name="Path 75" d="M828.184,412.287s5.089.161,6.664-3.614a9.975,9.975,0,0,0,3.171,3.063s1.808,7.856-2.149,9.567c-3.636,1.571-6.4-2.58-7.685-5.106C828.184,416.2,828.723,413.469,828.184,412.287Z" fill="#ffbbb4"/>
        <path id="Path_76" data-name="Path 76" d="M838.036,413.347s.184-1.509,1.415-1.182.2,3.636-.62,3.741S838.122,414.444,838.036,413.347Z" fill="#ffbbb4"/>
        <path id="Path_77" data-name="Path 77" d="M828.907,416.735s1.931,2.059,1.591,2.631-2.44,0-3.1-1.061S827.91,416.438,828.907,416.735Z" fill="#ffbbb4"/>
        <path id="Path_78" data-name="Path 78" d="M841.416,440.063a5.186,5.186,0,0,1,2.115,2.966l.272,1.016a2.739,2.739,0,0,0,2.646,2.032h14.343c-.517-1.55-1.1-3.111-1.732-4.659-5.473-1.134-22.317-4.813-26.017-7.85A72.148,72.148,0,0,0,841.416,440.063Z" fill="#470647" opacity="0.2"/>
      </g>
    </g>
    <g id="Group_12" data-name="Group 12">
      <path id="Path_58-2" data-name="Path 58" d="M425.607,471.666v22.86h-9.03v-22.86l1.88-3.48h5.27Z" fill="#f4e6dc"/>
      <rect id="Rectangle_60" data-name="Rectangle 60" width="9.033" height="3.764" transform="translate(416.576 474.77)" fill="#db8c83"/>
      <rect id="Rectangle_61" data-name="Rectangle 61" width="9.033" height="3.765" transform="translate(416.576 482.108)" fill="#db8c83"/>
      <path id="Path_59-2" data-name="Path 59" d="M420.807,468.186v26.34h-4.23v-22.86l1.88-3.48Z" fill="#b88a6a" opacity="0.4"/>
      <rect id="Rectangle_62" data-name="Rectangle 62" width="12.79" height="3.57" transform="translate(414.697 490.956)" fill="#685447"/>
    </g>
    <g id="Group_13" data-name="Group 13">
      <path id="Path_60-2" data-name="Path 60" d="M622.434,471.666v22.86H613.4v-22.86l1.88-3.48h5.27Z" fill="#fff1e6"/>
      <rect id="Rectangle_63" data-name="Rectangle 63" width="9.033" height="3.764" transform="translate(613.403 474.77)" fill="#db8c83"/>
      <rect id="Rectangle_64" data-name="Rectangle 64" width="9.033" height="3.765" transform="translate(613.403 482.108)" fill="#db8c83"/>
      <path id="Path_61-2" data-name="Path 61" d="M617.634,468.186v26.34H613.4v-22.86l1.88-3.48Z" fill="#b88a6a" opacity="0.4"/>
      <rect id="Rectangle_65" data-name="Rectangle 65" width="12.79" height="3.57" transform="translate(611.524 490.956)" fill="#685447"/>
    </g>
    <g id="Group_14" data-name="Group 14">
      <path id="Path_62-2" data-name="Path 62" d="M1016.089,471.666v22.86h-9.03v-22.86l1.88-3.48h5.27Z" fill="#f4e6dc"/>
      <rect id="Rectangle_66" data-name="Rectangle 66" width="9.033" height="3.764" transform="translate(1007.058 474.77)" fill="#db8c83"/>
      <rect id="Rectangle_67" data-name="Rectangle 67" width="9.033" height="3.765" transform="translate(1007.058 482.108)" fill="#db8c83"/>
      <path id="Path_63-2" data-name="Path 63" d="M1011.289,468.186v26.34h-4.23v-22.86l1.88-3.48Z" fill="#b88a6a" opacity="0.4"/>
      <rect id="Rectangle_68" data-name="Rectangle 68" width="12.79" height="3.57" transform="translate(1005.179 490.956)" fill="#685447"/>
    </g>
  </g>
</svg>
