<svg xmlns="http://www.w3.org/2000/svg" width="13.754" height="13.754" viewBox="0 0 13.754 13.754">
  <g id="_004-instagram" data-name="004-instagram" transform="translate(0 0)">
    <path id="Path_21" data-name="Path 21" d="M13.713,4.042a5.049,5.049,0,0,0-.32-1.669A3.37,3.37,0,0,0,12.6,1.154,3.371,3.371,0,0,0,11.382.361,5.048,5.048,0,0,0,9.712.041C8.979.008,8.745,0,6.877,0s-2.1.008-2.835.041a5.049,5.049,0,0,0-1.669.32,3.37,3.37,0,0,0-1.218.793A3.371,3.371,0,0,0,.361,2.372,5.048,5.048,0,0,0,.041,4.041C.008,4.775,0,5.009,0,6.877s.008,2.1.042,2.835a5.048,5.048,0,0,0,.32,1.669A3.37,3.37,0,0,0,1.154,12.6a3.37,3.37,0,0,0,1.218.793,5.046,5.046,0,0,0,1.669.32c.734.033.968.041,2.835.041s2.1-.008,2.835-.041a5.047,5.047,0,0,0,1.669-.32,3.516,3.516,0,0,0,2.011-2.011,5.047,5.047,0,0,0,.32-1.669c.033-.733.041-.968.041-2.835s-.008-2.1-.041-2.835ZM12.475,9.656a3.805,3.805,0,0,1-.237,1.277,2.277,2.277,0,0,1-1.305,1.305,3.8,3.8,0,0,1-1.277.237c-.725.033-.943.04-2.779.04s-2.054-.007-2.779-.04a3.806,3.806,0,0,1-1.277-.237,2.131,2.131,0,0,1-.791-.514,2.13,2.13,0,0,1-.514-.791,3.8,3.8,0,0,1-.237-1.277c-.033-.725-.04-.943-.04-2.779s.007-2.054.04-2.779a3.808,3.808,0,0,1,.237-1.277A2.132,2.132,0,0,1,2.03,2.03a2.129,2.129,0,0,1,.791-.514A3.8,3.8,0,0,1,4.1,1.279c.725-.033.943-.04,2.779-.04h0c1.836,0,2.054.007,2.779.04a3.806,3.806,0,0,1,1.277.237,2.132,2.132,0,0,1,.791.514,2.129,2.129,0,0,1,.514.791A3.8,3.8,0,0,1,12.475,4.1c.033.725.04.943.04,2.779s-.007,2.054-.04,2.779Zm0,0" transform="translate(0 0)" fill="#fff"/>
    <path id="Path_22" data-name="Path 22" d="M128.07,124.539a3.531,3.531,0,1,0,3.532,3.531A3.531,3.531,0,0,0,128.07,124.539Zm0,5.824a2.292,2.292,0,1,1,2.292-2.292A2.292,2.292,0,0,1,128.07,130.363Zm0,0" transform="translate(-121.193 -121.193)" fill="#fff"/>
    <path id="Path_23" data-name="Path 23" d="M363.58,89.451a.825.825,0,1,1-.825-.825A.825.825,0,0,1,363.58,89.451Zm0,0" transform="translate(-352.207 -86.245)" fill="#fff"/>
  </g>
</svg>
