<svg xmlns="http://www.w3.org/2000/svg" width="13.754" height="13.147" viewBox="0 0 13.754 13.147">
  <g id="linkedin" transform="translate(0 0)">
    <path id="Path_24" data-name="Path 24" d="M6.488,159.684H9.437v8.871H6.488Zm0,0" transform="translate(-6.314 -155.408)" fill="#fff"/>
    <path id="Path_25" data-name="Path 25" d="M1.668.5a1.537,1.537,0,1,0-.039,3.065h.019A1.537,1.537,0,1,0,1.668.5Zm0,0" transform="translate(0 -0.5)" fill="#fff"/>
    <path id="Path_26" data-name="Path 26" d="M182.579,151.934a2.927,2.927,0,0,0-2.657,1.464v-1.256h-2.948v8.871h2.948v-4.954a2.022,2.022,0,0,1,.1-.72,1.614,1.614,0,0,1,1.513-1.078c1.067,0,1.494.813,1.494,2.006v4.745h2.948v-5.086C185.973,153.2,184.518,151.934,182.579,151.934Zm0,0" transform="translate(-172.219 -147.866)" fill="#fff"/>
  </g>
</svg>
