<?xml version="1.0" encoding="utf-8"?>
<!-- Generator: Adobe Illustrator 23.0.0, SVG Export Plug-In . SVG Version: 6.00 Build 0)  -->
<svg version="1.1" id="Layer_1" xmlns="http://www.w3.org/2000/svg" xmlns:xlink="http://www.w3.org/1999/xlink" x="0px" y="0px"
	 viewBox="0 0 101 28" style="enable-background:new 0 0 101 28;" xml:space="preserve">
<style type="text/css">
	.st0{enable-background:new    ;}
	.st1{fill:#FFFFFF;}
	.st2{fill:#F200F2;}
</style>
<g class="st0">
	<path class="st1" d="M6.2,21.1c-2.9,0-5.1-1.5-5.2-4.2h3c0.1,1.1,0.8,1.9,2.1,1.9c1.3,0,2.1-0.7,2.1-1.7c0-3-7.2-1.2-7.2-6.3
		c0-2.5,2-4,4.9-4c2.9,0,4.8,1.5,5,4H7.9c-0.1-0.9-0.8-1.6-2-1.7C4.8,9.1,4,9.7,4,10.8c0,2.8,7.2,1.2,7.2,6.2
		C11.1,19.2,9.4,21.1,6.2,21.1z"/>
	<path class="st1" d="M17.9,9.7c1.8,0,3,0.8,3.7,1.8V9.9h2.8V21h-2.8v-1.6c-0.7,1-1.9,1.8-3.7,1.8c-2.8,0-5-2.3-5-5.8
		S15.1,9.7,17.9,9.7z M18.6,12.2c-1.5,0-2.9,1.1-2.9,3.2s1.4,3.3,2.9,3.3c1.5,0,2.9-1.2,2.9-3.3S20.2,12.2,18.6,12.2z"/>
	<path class="st1" d="M42.6,14.9c0-1.8-1-2.7-2.5-2.7c-1.5,0-2.5,0.9-2.5,2.7V21h-2.8v-6.1c0-1.8-1-2.7-2.5-2.7
		c-1.5,0-2.5,0.9-2.5,2.7V21h-2.8V9.9h2.8v1.3c0.7-0.9,1.9-1.5,3.3-1.5c1.7,0,3.1,0.7,3.9,2.1c0.7-1.3,2.2-2.1,3.8-2.1
		c2.7,0,4.5,1.7,4.5,4.7V21h-2.8V14.9z"/>
	<path class="st1" d="M47.8,7c0-0.9,0.7-1.6,1.7-1.6c1,0,1.7,0.7,1.7,1.6s-0.7,1.6-1.7,1.6C48.5,8.6,47.8,7.9,47.8,7z M48.1,9.9h2.8
		V21h-2.8V9.9z"/>
	<path class="st1" d="M56.4,21h-2.8V9.9h2.8v1.7c0.7-1.1,1.9-1.9,3.4-1.9v2.9h-0.7c-1.7,0-2.7,0.6-2.7,2.8V21z"/>
	<path class="st1" d="M64.5,9.9v12.9c0,2.6-1.4,3.5-3.5,3.5h-1.2v-2.4h0.8c0.9,0,1.2-0.3,1.2-1.1V9.9H64.5z M61.4,7
		c0-0.9,0.7-1.6,1.7-1.6c1,0,1.7,0.7,1.7,1.6s-0.7,1.6-1.7,1.6C62.1,8.6,61.4,7.9,61.4,7z"/>
</g>
<g class="st0">
	<path class="st2" d="M68.5,21.1c-1,0-1.7-0.7-1.7-1.6c0-0.9,0.7-1.6,1.7-1.6c1,0,1.7,0.7,1.7,1.6C70.2,20.4,69.5,21.1,68.5,21.1z"
		/>
</g>
<g class="st0">
	<path class="st1" d="M76.8,9.7c1.8,0,3,0.8,3.7,1.8V9.9h2.8V21h-2.8v-1.6c-0.7,1-1.9,1.8-3.7,1.8c-2.8,0-5-2.3-5-5.8
		S74,9.7,76.8,9.7z M77.5,12.2c-1.5,0-2.9,1.1-2.9,3.2s1.4,3.3,2.9,3.3c1.5,0,2.9-1.2,2.9-3.3S79.1,12.2,77.5,12.2z"/>
	<path class="st1" d="M88.8,21H86V9.9h2.8v1.7c0.7-1.1,1.9-1.9,3.4-1.9v2.9h-0.7c-1.7,0-2.7,0.6-2.7,2.8V21z"/>
	<path class="st1" d="M94.6,12.2h-1.3V9.9h1.3V7.2h2.8v2.7h2.5v2.3h-2.5v5.4c0,0.7,0.3,1.1,1.2,1.1h1.3V21h-1.8
		c-2.1,0-3.5-0.9-3.5-3.4V12.2z"/>
</g>
</svg>
