<svg id="_005-pinterest" data-name="005-pinterest" xmlns="http://www.w3.org/2000/svg" width="12.518" height="15.927" viewBox="0 0 12.518 15.927">
  <path id="XMLID_799_" d="M44.075,1.632A6.108,6.108,0,0,0,39.8,0a6.715,6.715,0,0,0-4.953,1.91,5.643,5.643,0,0,0-1.67,3.911,3.67,3.67,0,0,0,1.983,3.64.657.657,0,0,0,.249.051.555.555,0,0,0,.541-.446c.042-.158.139-.547.181-.716a.672.672,0,0,0-.18-.726,2.315,2.315,0,0,1-.526-1.582,3.981,3.981,0,0,1,4.128-4.007c2.127,0,3.449,1.209,3.449,3.155a6.556,6.556,0,0,1-.745,3.2,2.2,2.2,0,0,1-1.822,1.275,1.208,1.208,0,0,1-.961-.439,1.105,1.105,0,0,1-.194-.96c.095-.4.224-.82.349-1.225a7.58,7.58,0,0,0,.444-1.995A1.448,1.448,0,0,0,38.62,3.456c-1.108,0-1.976,1.125-1.976,2.562a3.809,3.809,0,0,0,.272,1.434c-.14.591-.969,4.107-1.126,4.77-.091.387-.639,3.444.268,3.687,1.019.274,1.93-2.7,2.023-3.04.075-.274.338-1.308.5-1.944a3.081,3.081,0,0,0,2.055.794,4.583,4.583,0,0,0,3.68-1.841A7.391,7.391,0,0,0,45.7,5.359,5.211,5.211,0,0,0,44.075,1.632Z" transform="translate(-33.181)" fill="#fff"/>
</svg>
