<svg xmlns="http://www.w3.org/2000/svg" width="16.253" height="9.619" viewBox="0 0 16.253 9.619">
  <path id="uplabs" d="M992.3,419.332v3.649a3.649,3.649,0,0,1-3.649,3.649h0A3.649,3.649,0,0,1,985,422.98v-3.649h1.99v3.649a1.659,1.659,0,0,0,1.659,1.659h0a1.659,1.659,0,0,0,1.659-1.659v-3.649Zm-.834,9.288a3.648,3.648,0,0,0-5.629,0Zm9.79-5.8a3.66,3.66,0,0,1-3.483,3.815,3.319,3.319,0,0,1-2.488-1.148v3.138h-1.99v-9.288h1.99v.816A3.319,3.319,0,0,1,997.771,419,3.66,3.66,0,0,1,1001.253,422.815Zm-2.206,0a2.07,2.07,0,0,0-1.97-2.156,1.971,1.971,0,0,0-1.794,1.27,2.36,2.36,0,0,0,0,1.771,1.971,1.971,0,0,0,1.794,1.27A2.07,2.07,0,0,0,999.048,422.815Z" transform="translate(-985 -419)" fill="#fff"/>
</svg>
